HIERARCHY
ROOT Hips
{
	OFFSET 0.000000 0.000000 0.000000
	CHANNELS 6 Xposition Yposition Zposition Zrotation Xrotation Yrotation
	JOINT LHipJoint
	{
		OFFSET 0.000000 0.000000 0.000000
		CHANNELS 3 Zrotation Xrotation Yrotation
		JOINT LeftUpLeg
		{
			OFFSET 0.076937 -0.101296 0.047373
			CHANNELS 3 Zrotation Xrotation Yrotation
			JOINT LeftLeg
			{
				OFFSET 0.138181 -0.379650 0.000000
				CHANNELS 3 Zrotation Xrotation Yrotation
				JOINT LeftFoot
				{
					OFFSET 0.144621 -0.397343 0.000000
					CHANNELS 3 Zrotation Xrotation Yrotation
					JOINT LeftToeBase
					{
						OFFSET 0.008898 -0.024446 0.131094
						CHANNELS 3 Zrotation Xrotation Yrotation
						JOINT End_Site
						{
							OFFSET 0.000000 -0.000000 0.067149
							CHANNELS 3 Zrotation Xrotation Yrotation
							End Site
							{
								OFFSET 0.000000 -0.000000 0.020145
							}
						}
					}
				}
			}
		}
	}
	JOINT RHipJoint
	{
		OFFSET 0.000000 0.000000 0.000000
		CHANNELS 3 Zrotation Xrotation Yrotation
		JOINT RightUpLeg
		{
			OFFSET -0.073689 -0.101296 0.047373
			CHANNELS 3 Zrotation Xrotation Yrotation
			JOINT RightLeg
			{
				OFFSET -0.143511 -0.394292 0.000000
				CHANNELS 3 Zrotation Xrotation Yrotation
				JOINT RightFoot
				{
					OFFSET -0.144963 -0.398282 0.000000
					CHANNELS 3 Zrotation Xrotation Yrotation
					JOINT RightToeBase
					{
						OFFSET -0.009298 -0.025546 0.133386
						CHANNELS 3 Zrotation Xrotation Yrotation
						JOINT End_Site
						{
							OFFSET -0.000000 -0.000000 0.068344
							CHANNELS 3 Zrotation Xrotation Yrotation
							End Site
							{
								OFFSET -0.000000 -0.000000 0.020503
							}
						}
					}
				}
			}
		}
	}
	JOINT LowerBack
	{
		OFFSET 0.000000 0.000000 0.000000
		CHANNELS 3 Zrotation Xrotation Yrotation
		JOINT Spine
		{
			OFFSET 0.001596 0.114897 -0.010915
			CHANNELS 3 Zrotation Xrotation Yrotation
			JOINT Spine1
			{
				OFFSET 0.003202 0.115645 -0.002413
				CHANNELS 3 Zrotation Xrotation Yrotation
				JOINT Neck
				{
					OFFSET 0.000000 0.000000 0.000000
					CHANNELS 3 Zrotation Xrotation Yrotation
					JOINT Neck1
					{
						OFFSET -0.003058 0.098565 0.009709
						CHANNELS 3 Zrotation Xrotation Yrotation
						JOINT Head
						{
							OFFSET 0.005874 0.099418 -0.006997
							CHANNELS 3 Zrotation Xrotation Yrotation
							JOINT End_Site
							{
								OFFSET 0.002100 0.099931 -0.003523
								CHANNELS 3 Zrotation Xrotation Yrotation
								End Site
								{
									OFFSET 0.000630 0.029979 -0.001057
								}
							}
						}
					}
				}
				JOINT LeftShoulder
				{
					OFFSET 0.000000 0.000000 0.000000
					CHANNELS 3 Zrotation Xrotation Yrotation
					JOINT LeftArm
					{
						OFFSET 0.189788 0.067783 -0.017566
						CHANNELS 3 Zrotation Xrotation Yrotation
						JOINT LeftForeArm
						{
							OFFSET 0.281260 -0.000000 -0.000000
							CHANNELS 3 Zrotation Xrotation Yrotation
							JOINT LeftHand
							{
								OFFSET 0.196626 -0.000000 -0.000000
								CHANNELS 3 Zrotation Xrotation Yrotation
								JOINT LeftFingerBase
								{
									OFFSET 0.000000 0.000000 0.000000
									CHANNELS 3 Zrotation Xrotation Yrotation
									JOINT LeftHandIndex1
									{
										OFFSET 0.040372 -0.000000 -0.000000
										CHANNELS 3 Zrotation Xrotation Yrotation
										JOINT End_Site
										{
											OFFSET 0.032549 -0.000000 -0.000000
											CHANNELS 3 Zrotation Xrotation Yrotation
											End Site
											{
												OFFSET 0.009765 -0.000000 -0.000000
											}
										}
									}
								}
								JOINT LThumb
								{
									OFFSET 0.000000 0.000000 0.000000
									CHANNELS 3 Zrotation Xrotation Yrotation
									JOINT End_Site
									{
										OFFSET 0.033046 -0.000000 0.033046
										CHANNELS 3 Zrotation Xrotation Yrotation
										End Site
										{
											OFFSET 0.009914 -0.000000 0.009914
										}
									}
								}
							}
						}
					}
				}
				JOINT RightShoulder
				{
					OFFSET 0.000000 0.000000 0.000000
					CHANNELS 3 Zrotation Xrotation Yrotation
					JOINT RightArm
					{
						OFFSET -0.177042 0.077557 -0.022840
						CHANNELS 3 Zrotation Xrotation Yrotation
						JOINT RightForeArm
						{
							OFFSET -0.295874 -0.000000 -0.000000
							CHANNELS 3 Zrotation Xrotation Yrotation
							JOINT RightHand
							{
								OFFSET -0.194403 -0.000000 -0.000000
								CHANNELS 3 Zrotation Xrotation Yrotation
								JOINT RightFingerBase
								{
									OFFSET 0.000000 0.000000 0.000000
									CHANNELS 3 Zrotation Xrotation Yrotation
									JOINT RightHandIndex1
									{
										OFFSET -0.035138 -0.000000 -0.000000
										CHANNELS 3 Zrotation Xrotation Yrotation
										JOINT End_Site
										{
											OFFSET -0.028329 -0.000000 -0.000000
											CHANNELS 3 Zrotation Xrotation Yrotation
											End Site
											{
												OFFSET -0.008499 -0.000000 -0.000000
											}
										}
									}
								}
								JOINT RThumb
								{
									OFFSET 0.000000 0.000000 0.000000
									CHANNELS 3 Zrotation Xrotation Yrotation
									JOINT End_Site
									{
										OFFSET -0.028762 -0.000000 0.028762
										CHANNELS 3 Zrotation Xrotation Yrotation
										End Site
										{
											OFFSET -0.008628 -0.000000 0.008628
										}
									}
								}
							}
						}
					}
				}
			}
		}
	}
}
MOTION
Frames: 5
Frame Time: 0.03333333
0.000000 1.008615 0.000000 -0.000000 0.000000 -0.000000 0.000002 -0.000002 -0.000000 -21.000006 0.000002 0.000001 0.000001 0.000000 0.000000 -0.000002 0.000001 -0.000009 0.000000 -0.000001 0.000009 -0.000000 0.000000 -0.000000 -0.000009 -0.000002 -0.000003 21.000012 0.000002 -0.000001 -0.000005 -0.000000 0.000000 0.000001 0.000002 0.000007 -0.000000 -0.000001 -0.000004 -0.000000 0.000000 -0.000000 -0.000002 -0.000007 -0.000000 0.000011 0.000010 -0.000000 -0.000000 0.000000 -0.000000 -0.050576 -15.984429 -0.508245 -0.010154 20.880099 -1.262701 -0.392258 11.055564 -0.209585 -0.000000 0.000000 -0.000000 -0.000020 0.000001 -0.000008 -7.999996 -0.000000 0.000007 -0.000003 0.000000 -0.000000 -0.000000 0.000000 -0.000000 0.000038 0.000000 0.000000 -0.000032 0.000000 -0.000000 -0.000000 0.000000 -0.000000 0.000050 -0.000050 -0.000026 -0.000000 0.000000 -0.000000 -0.000001 -0.000003 -0.000006 7.999984 0.000000 0.000007 0.000005 -0.000000 -0.000000 -0.000000 0.000000 -0.000000 0.000079 -0.000000 -0.000000 0.000049 -0.000000 -0.000000 -0.000000 0.000000 -0.000000 -0.000034 -0.000034 0.000002 -0.000000 0.000000 -0.000000
0.000023 1.008073 -0.000350 0.000000 0.000000 0.000000 -4.482974 -3.776714 -5.185739 -13.043010 5.125871 2.559349 -0.383529 18.698117 6.929740 0.708782 -16.889115 -1.271068 -0.079213 -5.088165 -1.782650 0.000000 0.000000 0.000000 -4.980384 1.161948 -3.042826 24.221668 -3.385424 2.124938 2.423866 24.939746 -9.811212 -2.980060 -17.873292 -5.171821 0.044484 3.602102 -1.414606 0.000000 0.000000 0.000000 -2.738318 0.416113 -0.256025 3.133501 -0.170399 0.074830 0.000000 0.000000 0.000000 -5.562780 -10.350210 -0.280674 3.505037 28.275002 -2.388041 3.390805 9.379695 -0.357467 0.000000 0.000000 0.000000 2.295617 2.439579 -6.690698 -35.884593 18.213299 -52.673323 30.340653 -47.417825 -116.616931 0.000000 0.000000 0.000000 40.663319 -3.556286 -9.578301 -6.836394 0.119322 -1.997507 0.000000 0.000000 0.000000 12.786526 -10.280373 12.483900 0.000000 0.000000 0.000000 1.650757 -3.640262 -7.448333 87.888234 -0.639565 -0.663583 -5.307042 -0.929050 19.845652 0.000000 0.000000 0.000000 -20.780183 3.207629 -17.364465 7.024398 -0.072836 -1.186672 0.000000 0.000000 0.000000 7.312700 2.574102 -51.258134 0.000000 0.000000 0.000000
-0.000418 1.007520 -0.001496 0.000000 0.000000 0.000000 -4.666902 -3.606935 -5.151404 -12.721056 4.546492 2.253887 -0.541003 19.336729 7.200628 0.663306 -17.275375 -1.474034 -0.044827 -3.840416 -1.336997 0.000000 0.000000 0.000000 -5.225756 0.946167 -3.001973 24.725329 -3.122723 1.979179 1.974210 24.675114 -9.592122 -2.981684 -17.982616 -5.141610 0.052817 3.944564 -1.533672 0.000000 0.000000 0.000000 -3.018074 0.509592 -0.280450 3.387387 -0.060373 0.074216 0.000000 0.000000 0.000000 -5.619902 -10.061631 -0.256608 3.776763 27.473847 -2.357632 3.530390 9.058705 -0.347196 0.000000 0.000000 0.000000 2.555464 2.455889 -6.719584 -35.486131 18.339184 -53.540649 31.677783 -48.273046 -115.320368 0.000000 0.000000 0.000000 40.204832 -2.778575 -7.582225 -6.872391 0.112357 -1.871050 0.000000 0.000000 0.000000 12.733265 -9.764777 15.127082 0.000000 0.000000 0.000000 1.886592 -3.681290 -7.429571 87.765193 -0.908902 -0.945062 -5.196958 -0.892173 19.469556 0.000000 0.000000 0.000000 -21.476313 3.357874 -17.572421 6.991224 -0.083547 -1.367644 0.000000 0.000000 0.000000 6.915837 2.370587 -52.196654 0.000000 0.000000 0.000000
-0.000412 1.007588 -0.003409 0.000000 0.000000 0.000000 -5.151999 -3.248488 -5.129084 -12.084162 3.684210 1.800732 -0.738100 20.248207 7.585919 0.654690 -17.801192 -1.584380 -0.037759 -3.523925 -1.227430 0.000000 0.000000 0.000000 -5.672829 0.895304 -3.158978 25.278924 -2.943314 1.885428 1.735999 24.214124 -9.350075 -2.900210 -17.559259 -5.037883 0.059181 4.183097 -1.620360 0.000000 0.000000 0.000000 -3.106658 0.877565 -0.283692 3.550963 0.086647 0.069092 0.000000 0.000000 0.000000 -5.227921 -9.529778 -0.219139 3.541970 25.965305 -2.167327 3.368722 8.430470 -0.308019 0.000000 0.000000 0.000000 2.461370 2.470689 -6.771750 -35.052832 18.308730 -54.068058 32.217037 -48.431332 -114.588433 0.000000 0.000000 0.000000 40.556062 -4.953049 -13.353209 -6.856369 0.115558 -1.928847 0.000000 0.000000 0.000000 11.774974 -10.135090 8.612671 0.000000 0.000000 0.000000 1.777176 -3.663593 -7.441144 87.847928 -1.104998 -1.147299 -5.043020 -0.887641 19.952954 0.000000 0.000000 0.000000 -20.784502 3.331770 -18.022266 6.995651 -0.082175 -1.344320 0.000000 0.000000 0.000000 7.614751 2.588724 -52.493353 0.000000 0.000000 0.000000
-0.000864 1.007012 -0.005594 0.000000 0.000000 0.000000 -5.254950 -2.959083 -4.952891 -11.749589 3.069984 1.489308 -0.983655 20.553152 7.752755 0.657443 -17.851785 -1.584118 -0.054610 -4.223678 -1.480861 0.000000 0.000000 0.000000 -5.825743 0.628566 -3.046444 25.613856 -2.816014 1.815492 1.619205 24.348364 -9.374607 -3.086342 -17.724721 -5.531521 0.038800 3.342957 -1.329579 0.000000 0.000000 0.000000 -3.465779 1.417373 -0.306380 3.692014 0.057938 0.073657 0.000000 0.000000 0.000000 -4.465969 -8.900391 -0.185894 3.078992 24.869600 -1.989090 3.077800 7.937796 -0.272946 0.000000 0.000000 0.000000 2.666694 2.290278 -6.206578 -35.006336 18.547341 -54.747740 32.233783 -48.341361 -114.450374 0.000000 0.000000 0.000000 41.111369 -5.630407 -14.941544 -6.884778 0.109838 -1.825804 0.000000 0.000000 0.000000 11.648848 -10.284782 7.160718 0.000000 0.000000 0.000000 2.136663 -3.573389 -7.087466 87.851070 -1.233538 -1.280688 -4.937916 -0.868123 19.930556 0.000000 0.000000 0.000000 -20.534397 3.025483 -16.589509 6.995351 -0.082298 -1.346396 0.000000 0.000000 0.000000 7.856228 2.778510 -51.095128 0.000000 0.000000 0.000000
